:version 1.10
:name ASF
:units
  mass 1
  length 1
  angle deg
:documentation
  ASF file generated by Kaydara
:root
  axis xyz
  order  tx ty tz rx ry rz
  position 0 0 0
  orientation 0 0 0
:bonedata
  begin
    id 1
    name lfemurDummy
    direction 0.61522 -0.761478 0.204097
    length 5.68318
    axis 0 -0 0 xyz
  end
  begin
    id 2
    name lfemur
    direction 0.34202 -0.939693 -5.84747e-008
    length 16.9147
    axis 0 -0 20 xyz
    dof rx ry rz
    limits( -inf , inf )
( -inf , inf )
( -inf , inf )

  end
  begin
    id 3
    name ltibia
    direction 0.34202 -0.939693 1.20839e-009
    length 18.0532
    axis 0 -0 20 xyz
    dof rz ry rx
    limits( -inf , inf )
( -inf , inf )
( -inf , inf )

  end
  begin
    id 4
    name lfoot
    direction 0.0841971 -0.23133 0.969225
    length 5.23822
    axis -90 7.62852e-016 20 xyz
    dof ry rx rz
    limits( -inf , inf )
( -inf , inf )
( -inf , inf )

  end
  begin
    id 5
    name ltoes
    direction 0 0 0
    length 0
    axis 0 0 0 xyz
    dof rz ry rx
    limits( -inf , inf )
( -inf , inf )
( -inf , inf )

  end
  begin
    id 6
    name rfemurDummy
    direction -0.625247 -0.75382 0.202044
    length 5.74091
    axis 0 -0 0 xyz
  end
  begin
    id 7
    name rfemur
    direction -0.34202 -0.939693 -1.47013e-008
    length 16.4922
    axis 0 -0 -20 xyz
    dof rx ry rz
    limits( -inf , inf )
( -inf , inf )
( -inf , inf )

  end
  begin
    id 8
    name rtibia
    direction -0.34202 -0.939693 -7.74345e-010
    length 18.2421
    axis 0 -0 -20 xyz
    dof rz ry rx
    limits( -inf , inf )
( -inf , inf )
( -inf , inf )

  end
  begin
    id 9
    name rfoot
    direction -0.124331 -0.341598 0.931586
    length 5.45787
    axis -90 -7.62852e-016 -20 xyz
    dof ry rx rz
    limits( -inf , inf )
( -inf , inf )
( -inf , inf )

  end
  begin
    id 10
    name rtoes
    direction 0 0 0
    length 0
    axis 0 0 0 xyz
    dof rz ry rx
    limits( -inf , inf )
( -inf , inf )
( -inf , inf )

  end
  begin
    id 11
    name lowerbackDummy
    direction 0 0 0
    length 0
    axis 0 -0 0 xyz
  end
  begin
    id 12
    name lowerback
    direction -0.0218484 0.994884 -0.0986304
    length 4.45607
    axis 0 -0 0 xyz
    dof rx ry rz
    limits( -inf , inf )
( -inf , inf )
( -inf , inf )

  end
  begin
    id 13
    name upperback
    direction -0.00973057 0.999717 -0.0217111
    length 4.47449
    axis 0 -0 0 xyz
    dof rx ry rz
    limits( -inf , inf )
( -inf , inf )
( -inf , inf )

  end
  begin
    id 14
    name thorax
    direction -0.000928171 0.999699 0.0245198
    length 4.50973
    axis 0 -0 0 xyz
    dof rx ry rz
    limits( -inf , inf )
( -inf , inf )
( -inf , inf )

  end
  begin
    id 15
    name rclavicle
    direction -0.9009 0.425937 -0.0834055
    length 7.28587
    axis 0 -0 0 xyz
    dof rx ry rz
    limits( -inf , inf )
( -inf , inf )
( -inf , inf )

  end
  begin
    id 16
    name rhumerus
    direction -1 -2.23604e-007 -1.42637e-007
    length 13.5704
    axis 180 30 90 xyz
    dof rx ry rz
    limits( -inf , inf )
( -inf , inf )
( -inf , inf )

  end
  begin
    id 17
    name rradius
    direction -1 5.68281e-008 -4.4952e-007
    length 8.06782
    axis 180 30 90 xyz
    dof rz ry rx
    limits( -inf , inf )
( -inf , inf )
( -inf , inf )

  end
  begin
    id 18
    name rwrist
    direction -1 1.51393e-007 1.38143e-007
    length 4.03391
    axis -90 -90 0 xyz
    dof rz rx ry
    limits( -inf , inf )
( -inf , inf )
( -inf , inf )

  end
  begin
    id 19
    name rthumb
    direction 0 0 0
    length 0
    axis 0 0 0 xyz
    dof ry rx rz
    limits( -inf , inf )
( -inf , inf )
( -inf , inf )

  end
  begin
    id 20
    name rhand
    direction -1 -3.34077e-007 -5.59631e-007
    length 1.29744
    axis -90 -90 0 xyz
    dof ry rx rz
    limits( -inf , inf )
( -inf , inf )
( -inf , inf )

  end
  begin
    id 21
    name rfingers
    direction 0 0 0
    length 0
    axis 0 0 0 xyz
    dof rz ry rx
    limits( -inf , inf )
( -inf , inf )
( -inf , inf )

  end
  begin
    id 22
    name lclavicle
    direction 0.940017 0.332249 -0.0773232
    length 8.29589
    axis 0 -0 0 xyz
    dof rx ry rz
    limits( -inf , inf )
( -inf , inf )
( -inf , inf )

  end
  begin
    id 23
    name lhumerus
    direction 1 7.41158e-008 -1.44768e-008
    length 12.0042
    axis 180 -30 -90 xyz
    dof rx ry rz
    limits( -inf , inf )
( -inf , inf )
( -inf , inf )

  end
  begin
    id 24
    name lradius
    direction 1 -1.32972e-007 3.10821e-007
    length 8.1902
    axis 180 -30 -90 xyz
    dof rz ry rx
    limits( -inf , inf )
( -inf , inf )
( -inf , inf )

  end
  begin
    id 25
    name lwrist
    direction 1 3.08957e-007 4.01394e-007
    length 4.09509
    axis -90 90 0 xyz
    dof rz rx ry
    limits( -inf , inf )
( -inf , inf )
( -inf , inf )

  end
  begin
    id 26
    name lthumb
    direction 0 0 0
    length 0
    axis 0 0 0 xyz
    dof ry rx rz
    limits( -inf , inf )
( -inf , inf )
( -inf , inf )

  end
  begin
    id 27
    name lhand
    direction 1 -1.64125e-007 -6.99514e-007
    length 1.37229
    axis -90 90 0 xyz
    dof ry rx rz
    limits( -inf , inf )
( -inf , inf )
( -inf , inf )

  end
  begin
    id 28
    name lfingers
    direction 0 0 0
    length 0
    axis 0 0 0 xyz
    dof rz ry rx
    limits( -inf , inf )
( -inf , inf )
( -inf , inf )

  end
  begin
    id 29
    name lowerneck
    direction -0.030798 0.998024 0.0547665
    length 3.93918
    axis 0 -0 0 xyz
    dof rx ry rz
    limits( -inf , inf )
( -inf , inf )
( -inf , inf )

  end
  begin
    id 30
    name upperneck
    direction 0.0531588 0.996611 -0.0627736
    length 3.95491
    axis 0 -0 0 xyz
    dof rx ry rz
    limits( -inf , inf )
( -inf , inf )
( -inf , inf )

  end
  begin
    id 31
    name head
    direction 0 0 0
    length 0
    axis 0 0 0 xyz
    dof rx ry rz
    limits( -inf , inf )
( -inf , inf )
( -inf , inf )

  end
:hierarchy
  begin
    root lfemurDummy rfemurDummy lowerbackDummy
    lfemurDummy lfemur
    lfemur ltibia
    ltibia lfoot
    lfoot ltoes
    rfemurDummy rfemur
    rfemur rtibia
    rtibia rfoot
    rfoot rtoes
    lowerbackDummy lowerback
    lowerback upperback
    upperback thorax
    thorax rclavicle lclavicle lowerneck
    rclavicle rhumerus
    rhumerus rradius
    rradius rwrist
    rwrist rthumb rhand
    rhand rfingers
    lclavicle lhumerus
    lhumerus lradius
    lradius lwrist
    lwrist lthumb lhand
    lhand lfingers
    lowerneck upperneck
    upperneck head
  end

:SAMPLES-PER-SECOND 30
:FULLY-SPECIFIED
:DEGREES
103
root  13.2170895 36.83200145 2.165397697 -9.861999512 -44.08599854 7.190994263
lowerback  11.43640041 4.813109875 -0.4065119922
upperback  4.196489811 6.239280224 -0.6811169982
thorax  -1.963279963 3.081199884 -1.277969956
lowerneck  -4.408259869 5.00883007 -6.131330013
upperneck  11.64719963 6.4801898 6.857850075
head  3.749919891 3.282109976 3.363270044
lclavicle  0 -9.442270133e-015 7.951389973e-016
lhumerus  20.82279968 -7.067840099 78.81469727
lradius  2.350023727e-031 -2.635570625e-031 131.7220001
lwrist  -7.062250077e-031 8.827812596e-032 20.68770027
lhand  -1.496451383e-031 -27.76390076 20.11240005
lfingers  90 7.125020027 -90
lthumb  89.89689403 5.08795885 91.16245106
rclavicle  0 -9.442270133e-015 7.951389973e-016
rhumerus  33.21839905 14.47239971 -79.81950378
rradius  -1.251449589e-031 3.301926402e-031 110.7570038
rwrist  7.062250077e-031 7.062250077e-031 -53.87549973
rhand  -7.920061211e-032 -33.2840004 9.303460121
rfingers  -90 -7.125020027 -90
rthumb  -92.93752616 -24.25625642 -97.11982154
rfemur  -3.225769997 14.03680038 1.421300054
rtibia  -0 0 53.832901
rfoot  -0 -30.54039955 -18.82500076
rtoes  5.373923086 19.29304026 -105.8922705
lfemur  -23.18460083 -1.276219964 -3.410029888
ltibia  -0 0 54.32130051
lfoot  4.526578558e-032 -12.81050014 -1.705229998
ltoes  -4.250644065 -19.5611806 -102.515957
104
root  13.25935604 36.94022171 2.122533415 -9.559997559 -45.17399597 6.947006226
lowerback  11.34969997 4.862020016 -0.04418160021
upperback  4.292840004 6.347169876 -0.487210989
thorax  -1.797399998 3.136559963 -1.277400017
lowerneck  -4.153999805 5.210010052 -5.885719776
upperneck  11.5468998 6.73597002 6.690100193
head  3.675699949 3.406379938 3.2692101
lclavicle  0 -9.442270133e-015 7.951389973e-016
lhumerus  20.1807003 -6.867489815 78.95739746
lradius  2.368594558e-031 -2.618893632e-031 132.1269989
lwrist  0 8.827812596e-032 20.85230064
lhand  -1.496451383e-031 -27.76390076 20.11240005
lfingers  90 7.125020027 -90
lthumb  89.89689403 5.08795885 91.16245106
rclavicle  0 -9.442270133e-015 7.951389973e-016
rhumerus  33.24430084 14.81659985 -79.77140045
rradius  -1.253696494e-031 3.301073937e-031 110.7959976
rwrist  7.062250077e-031 3.531125038e-031 -53.4754982
rhand  -7.920061211e-032 -33.2840004 9.303460121
rfingers  -90 -7.125020027 -90
rthumb  -92.93752616 -24.25625642 -97.11982154
rfemur  -3.803780079 13.98349953 1.348459959
rtibia  -0 0 53.33000183
rfoot  -0 -30.30069923 -18.11829948
rtoes  5.373923086 19.29304026 -105.8922705
lfemur  -23.53899956 -0.8778049946 -2.911360025
ltibia  -0 0 55.16139984
lfoot  6.757782481e-032 -11.55340004 -1.701550007
ltoes  -4.250644065 -19.5611806 -102.515957
105
root  13.31044445 37.05733292 2.090753345 -9.389007568 -46.41099548 6.798995972
lowerback  11.30169964 4.944340229 0.4265739918
upperback  4.455500126 6.502830029 -0.4371010065
thorax  -1.552549958 3.21855998 -1.488070011
lowerneck  -4.320179939 5.425169945 -5.603579998
upperneck  11.92739964 6.971889973 6.902009964
head  3.804059982 3.544670105 3.31137991
lclavicle  0 -9.442270133e-015 7.951389973e-016
lhumerus  19.70919991 -6.833789825 78.96060181
lradius  2.385593498e-031 -2.603418464e-031 132.5
lwrist  -1.412450015e-030 1.765562519e-031 20.86750031
lhand  -1.496451383e-031 -27.76390076 20.11240005
lfingers  90 7.125020027 -90
lthumb  89.89689403 5.08795885 91.16245106
rclavicle  0 -9.442270133e-015 7.951389973e-016
rhumerus  33.32249832 15.03110027 -79.86000061
rradius  -1.247817971e-031 3.303300523e-031 110.6940002
rwrist  7.062250077e-031 5.296687558e-031 -53.08570099
rhand  -7.920061211e-032 -33.2840004 9.303460121
rfingers  -90 -7.125020027 -90
rthumb  -92.93752616 -24.25625642 -97.11982154
rfemur  -4.308589935 14.03269958 1.12349999
rtibia  -0 0 52.63899994
rfoot  -0 -29.9015007 -16.7968998
rtoes  5.373923086 19.29304026 -105.8922705
lfemur  -23.67910004 -0.543456018 -2.411760092
ltibia  -0 0 55.74089813
lfoot  4.483390076e-032 -10.10039997 -1.738299966
ltoes  -4.250644065 -19.5611806 -102.515957
106
root  13.36915624 37.18377662 2.065555505 -9.289993286 -47.78399658 6.697006226
lowerback  11.33889961 4.999489784 0.880810976
upperback  4.588829994 6.620969772 -0.3126029968
thorax  -1.393919945 3.281049967 -1.617939949
lowerneck  -4.667850018 5.738269806 -5.632390022
upperneck  12.77289963 7.335509777 7.293149948
head  4.075829983 3.743089914 3.483030081
lclavicle  0 -9.442270133e-015 7.951389973e-016
lhumerus  19.02459908 -6.711249828 79.09999847
lradius  2.403394704e-031 -2.586993996e-031 132.8930054
lwrist  -7.062250077e-031 -8.827812596e-032 20.65929985
lhand  -1.496451383e-031 -27.76390076 20.11240005
lfingers  90 7.125020027 -90
lthumb  89.89689403 5.08795885 91.16245106
rclavicle  0 -9.442270133e-015 7.951389973e-016
rhumerus  33.36339951 15.39449978 -79.86959839
rradius  -1.237664945e-031 3.307118008e-031 110.5179977
rwrist  7.062250077e-031 7.062250077e-031 -52.82920074
rhand  -7.920061211e-032 -33.2840004 9.303460121
rfingers  -90 -7.125020027 -90
rthumb  -92.93752616 -24.25625642 -97.11982154
rfemur  -4.869870186 14.1885004 0.7944030166
rtibia  -0 0 51.96409988
rfoot  -0 -29.31399918 -15.29170036
rtoes  5.373923086 19.29304026 -105.8922705
lfemur  -23.72319984 -0.3139100075 -1.869050026
ltibia  -0 0 56.22480011
lfoot  4.462725832e-032 -8.482640266 -2.059109926
ltoes  -4.250644065 -19.5611806 -102.515957
107
root  13.43633396 37.33755697 2.048837857 -9.23399353 -49.26400757 6.561004639
lowerback  11.57279968 5.062970161 1.132269979
upperback  4.677810192 6.733850002 0.01603100076
thorax  -1.435179949 3.334059954 -1.449309945
lowerneck  -4.624979973 6.06814003 -5.423860073
upperneck  13.42020035 7.767429829 7.000500202
head  4.258540154 3.942759991 3.393209934
lclavicle  0 -9.442270133e-015 7.951389973e-016
lhumerus  18.07220078 -6.51914978 79.42759705
lradius  2.423189753e-031 -2.568461691e-031 133.3329926
lwrist  -1.412450015e-030 -0 20.45770073
lhand  -1.496451383e-031 -27.76390076 20.11240005
lfingers  90 7.125020027 -90
lthumb  89.89689403 5.08795885 91.16245106
rclavicle  0 -9.442270133e-015 7.951389973e-016
rhumerus  33.30690002 15.96100044 -79.61720276
rradius  -1.226344636e-031 3.311332492e-031 110.3219986
rwrist  7.062250077e-031 7.062250077e-031 -52.43889999
rhand  -7.920061211e-032 -33.2840004 9.303460121
rfingers  -90 -7.125020027 -90
rthumb  -92.93752616 -24.25625642 -97.11982154
rfemur  -5.451409817 14.47379971 0.4902310073
rtibia  -0 0 51.29899979
rfoot  -0 -28.36610031 -13.90740013
rtoes  5.373923086 19.29304026 -105.8922705
lfemur  -23.6072998 -0.03288429976 -1.295750022
ltibia  -0 0 56.65980148
lfoot  4.446050117e-032 -6.893839836 -2.589349985
ltoes  -4.250644065 -19.5611806 -102.515957
108
root  13.52815553 37.50400093 2.037342139 -9.453994751 -50.52200317 6.671005249
lowerback  12.04590034 4.978660107 1.200580001
upperback  4.710269928 6.636569977 0.4006980062
thorax  -1.698529959 3.276220083 -1.124390006
lowerneck  -3.858619928 6.427239895 -5.2458601
upperneck  13.5539999 8.273019791 6.318190098
head  4.180580139 4.14812994 3.147890091
lclavicle  0 -9.442270133e-015 7.951389973e-016
lhumerus  16.86380005 -6.090300083 79.8707962
lradius  2.435713266e-031 -2.556588532e-031 133.6130066
lwrist  -7.062250077e-031 -0 20.27619934
lhand  -1.496451383e-031 -27.76390076 20.11240005
lfingers  90 7.125020027 -90
lthumb  89.89689403 5.08795885 91.16245106
rclavicle  0 -9.442270133e-015 7.951389973e-016
rhumerus  33.18930054 16.79999924 -79.23889923
rradius  -1.215877896e-031 3.315190036e-031 110.1409988
rwrist  7.062250077e-031 5.296687558e-031 -52.00479889
rhand  -7.920061211e-032 -33.2840004 9.303460121
rfingers  -90 -7.125020027 -90
rthumb  -92.93752616 -24.25625642 -97.11982154
rfemur  -5.947350025 14.57870007 -0.05379649997
rtibia  -0 0 50.66790009
rfoot  -0 -27.0359993 -12.51570034
rtoes  5.373923086 19.29304026 -105.8922705
lfemur  -23.52799988 -0.06164880097 -0.9943079948
ltibia  -0 0 57.03789902
lfoot  6.644947237e-032 -4.880020142 -3.134229898
ltoes  -4.250644065 -19.5611806 -102.515957
109
root  13.63668817 37.65977875 2.041508832 -9.809997559 -51.6230011 6.930999756
lowerback  12.46640015 4.813680172 1.373029947
upperback  4.891290188 6.435939789 0.6310830116
thorax  -1.749109983 3.171220064 -0.9848560095
lowerneck  -3.336410046 6.713089943 -4.850120068
upperneck  13.58150005 8.694140434 5.504330158
head  4.137229919 4.320839882 2.832760096
lclavicle  0 -9.442270133e-015 7.951389973e-016
lhumerus  15.98900032 -5.575799942 80.24469757
lradius  2.437809498e-031 -2.554589769e-031 133.6600037
lwrist  -1.412450015e-030 -8.827812596e-032 20.34339905
lhand  -1.496451383e-031 -27.76390076 20.11240005
lfingers  90 7.125020027 -90
lthumb  89.89689403 5.08795885 91.16245106
rclavicle  0 -9.442270133e-015 7.951389973e-016
rhumerus  33.36420059 17.4545002 -78.91850281
rradius  -1.207020849e-031 3.318425034e-031 109.987999
rwrist  7.062250077e-031 8.827812596e-031 -51.7859993
rhand  -7.920061211e-032 -33.2840004 9.303460121
rfingers  -90 -7.125020027 -90
rthumb  -92.93752616 -24.25625642 -97.11982154
rfemur  -6.414239883 14.57499981 -0.7794589996
rtibia  -0 0 50.08319855
rfoot  -0 -25.57500076 -10.84729958
rtoes  5.373923086 19.29304026 -105.8922705
lfemur  -23.59090042 -0.3663159907 -0.8944429755
ltibia  -0 0 57.34130096
lfoot  4.418957667e-032 -2.739830017 -3.465909958
ltoes  -4.250644065 -19.5611806 -102.515957
